<?xml version="1.0" standalone="no"?>
<!DOCTYPE svg PUBLIC "-//W3C//DTD SVG 20010904//EN"
 "http://www.w3.org/TR/2001/REC-SVG-20010904/DTD/svg10.dtd">
<svg version="1.0" xmlns="http://www.w3.org/2000/svg"
 width="935.000000pt" height="601.000000pt" viewBox="0 0 935.000000 601.000000"
 preserveAspectRatio="xMidYMid meet">

<g transform="translate(0.000000,601.000000) scale(0.100000,-0.100000)"
fill="#000000" stroke="none">
<path d="M1985 5500 c-27 -4 -44 -8 -37 -10 6 -1 15 -3 20 -5 33 -9 75 -16
197 -35 77 -12 160 -27 185 -34 25 -8 81 -24 125 -36 112 -32 395 -127 485
-162 41 -17 95 -37 119 -45 25 -8 70 -26 100 -40 31 -14 65 -29 76 -33 62 -25
298 -138 343 -164 333 -194 602 -445 698 -651 53 -116 67 -184 68 -335 1 -114
-2 -145 -21 -200 -31 -93 -77 -193 -96 -209 -10 -7 -17 -20 -17 -27 0 -8 -5
-14 -10 -14 -6 0 -15 -10 -21 -22 -19 -42 -34 -65 -80 -116 -50 -55 -83 -77
-218 -141 -35 -17 -73 -31 -83 -31 -10 0 -21 -6 -24 -13 -2 -7 -18 -14 -35
-15 -17 -1 -43 -8 -57 -16 -36 -17 -103 -21 -377 -20 -242 0 -263 3 -460 55
-144 39 -372 121 -455 164 -14 7 -43 21 -65 30 -22 10 -121 61 -220 113 -99
53 -220 116 -270 140 -49 25 -101 50 -115 57 -45 23 -214 92 -255 105 -22 7
-44 16 -50 20 -5 4 -59 24 -120 45 -125 42 -145 52 -145 66 0 11 44 30 81 34
14 1 51 5 81 9 76 10 326 -11 418 -34 121 -31 382 -147 490 -219 14 -9 50 -30
80 -45 30 -16 62 -35 70 -42 23 -20 316 -158 385 -181 59 -21 102 -33 180 -53
74 -18 291 -33 313 -21 12 6 46 12 76 12 105 3 56 16 -81 23 -192 9 -209 12
-363 63 -137 46 -283 117 -395 192 -49 33 -94 64 -100 68 -5 5 -53 40 -105 79
-392 289 -628 373 -1045 374 -151 0 -352 -21 -364 -38 -3 -4 -10 -7 -16 -8
-44 -2 -206 -44 -223 -57 -10 -8 -12 -24 -7 -56 21 -139 95 -222 282 -316 79
-39 223 -105 229 -105 4 0 137 -55 239 -100 131 -57 720 -356 790 -401 17 -11
86 -52 155 -93 69 -40 185 -109 258 -154 74 -45 135 -82 138 -82 7 0 268 -172
274 -180 3 -4 50 -36 105 -72 336 -218 547 -301 970 -379 258 -47 535 -33 780
41 242 73 330 106 359 135 12 12 16 13 16 3 0 -8 4 -7 11 5 5 9 19 17 30 17
11 0 27 7 35 15 9 8 25 15 36 15 11 0 33 9 49 21 16 11 29 17 29 14 0 -3 13 3
29 14 15 11 31 17 35 13 4 -3 10 -2 14 4 8 13 264 95 372 120 122 28 366 30
514 4 167 -30 238 -48 386 -101 73 -26 279 -134 372 -195 161 -106 262 -152
423 -192 234 -59 334 -65 468 -31 69 18 167 62 167 75 0 2 -89 3 -197 2 -194
-1 -200 0 -301 30 -56 17 -108 35 -115 39 -6 4 -14 8 -17 8 -3 1 -34 16 -70
34 -122 61 -358 217 -430 284 -19 18 -55 48 -80 67 -24 19 -56 46 -70 59 -14
13 -45 37 -70 54 -25 16 -54 38 -65 47 -11 9 -36 26 -55 36 -19 10 -37 22 -40
25 -6 7 -209 109 -264 133 -22 10 -102 31 -178 47 -189 40 -375 41 -523 4 -55
-14 -107 -28 -115 -32 -8 -3 -26 -8 -40 -9 -45 -5 -71 -14 -65 -23 6 -10 -18
-21 -46 -21 -10 0 -19 -4 -19 -10 0 -5 -12 -10 -26 -10 -14 0 -54 -8 -88 -17
-47 -14 -101 -17 -236 -17 -155 0 -181 2 -225 20 -60 26 -69 44 -23 45 68 2
98 7 145 23 26 8 77 25 113 36 83 27 120 43 120 52 0 5 3 7 8 6 13 -4 52 13
52 23 0 5 11 9 24 9 14 0 31 6 38 13 7 8 26 17 41 21 15 3 27 13 27 21 0 8 6
12 14 9 8 -3 23 3 33 13 11 11 25 17 31 15 7 -2 12 1 12 7 0 6 7 11 15 11 8 0
15 5 15 11 0 5 4 7 10 4 5 -3 20 3 32 15 12 11 27 19 33 17 5 -2 24 5 40 17
17 11 31 20 32 19 6 -4 43 10 43 17 0 7 62 26 180 55 104 26 270 30 370 10 47
-9 108 -21 136 -25 28 -4 59 -12 70 -17 72 -36 111 -53 120 -53 7 0 35 -16 64
-35 49 -33 70 -42 70 -30 0 9 -153 105 -167 105 -6 0 -33 11 -60 24 -148 75
-370 126 -544 126 -166 0 -521 -60 -626 -106 -17 -8 -42 -14 -56 -14 -14 0
-29 -5 -32 -10 -4 -6 -18 -10 -33 -10 -15 0 -56 -4 -92 -10 -70 -12 -186 -3
-182 15 1 6 6 10 11 10 5 0 13 3 17 7 4 4 17 5 29 2 32 -8 235 49 235 66 0 4
15 11 34 14 19 4 39 13 46 21 7 8 18 15 26 15 7 0 36 14 64 30 28 17 55 30 60
30 6 0 10 5 10 10 0 6 6 10 14 10 8 0 16 3 18 8 13 30 302 138 428 160 149 27
194 26 410 -8 155 -24 427 -129 565 -219 22 -14 48 -30 57 -36 9 -5 48 -29 85
-51 111 -67 309 -164 336 -164 7 0 17 -4 22 -9 16 -15 180 -58 310 -82 94 -17
140 -20 213 -15 156 11 242 33 242 62 0 14 -11 15 -77 12 -219 -12 -433 50
-708 207 -33 19 -67 38 -75 42 -26 14 -255 166 -260 173 -6 9 -229 160 -235
160 -3 0 -28 15 -57 34 -129 81 -292 147 -416 166 -37 6 -94 15 -128 21 -77
13 -198 10 -305 -8 -46 -8 -95 -16 -109 -18 -52 -9 -164 -45 -170 -56 -4 -6
-10 -10 -14 -10 -17 3 -56 -12 -56 -22 0 -6 -3 -8 -6 -4 -3 3 -41 -12 -83 -34
-42 -22 -99 -47 -128 -54 -28 -7 -61 -19 -72 -25 -12 -6 -26 -8 -31 -5 -6 3
-16 3 -22 -2 -7 -4 -15 -8 -18 -8 -3 0 -27 -7 -53 -14 -35 -10 -81 -12 -170
-8 -139 7 -152 9 -227 38 -30 11 -68 25 -85 31 -46 17 -61 38 -64 93 -4 86
-42 237 -75 305 -51 106 -197 319 -275 402 -40 43 -100 99 -134 126 -81 64
-225 162 -237 162 -5 0 -13 6 -17 13 -4 6 -20 19 -35 27 -15 8 -78 45 -140 81
-62 37 -163 91 -225 122 -61 30 -121 61 -133 70 -29 21 -9 30 37 18 21 -6 57
-11 81 -13 24 -1 46 -6 48 -10 3 -4 44 -8 92 -8 l87 0 -44 20 c-24 11 -59 20
-78 20 -39 0 -174 29 -313 67 -93 25 -360 95 -510 134 -85 22 -240 56 -315 70
-59 11 -341 39 -370 37 -11 0 -42 -4 -70 -8z"/>
<path d="M3727 5173 c18 -2 50 -2 70 0 21 2 7 4 -32 4 -38 0 -55 -2 -38 -4z"/>
<path d="M1053 5018 c-6 -7 -18 -38 -27 -68 -17 -54 -84 -170 -98 -170 -5 0
-8 -7 -8 -15 0 -8 -6 -15 -14 -15 -8 0 -17 -7 -20 -16 -7 -19 39 -39 114 -49
316 -39 824 -122 1015 -166 200 -45 335 -78 395 -95 30 -8 105 -28 165 -44
141 -38 187 -51 315 -90 58 -18 125 -38 150 -45 25 -7 58 -18 73 -24 16 -6 41
-11 55 -11 15 0 36 -6 47 -13 26 -17 204 -71 211 -64 3 3 -3 10 -14 16 -11 6
-26 17 -34 23 -23 23 -101 78 -173 123 -38 25 -75 49 -81 54 -70 58 -599 338
-693 366 -13 4 -60 24 -105 45 -143 66 -170 75 -436 153 -185 54 -326 77 -579
97 -69 5 -154 12 -187 15 -43 4 -64 1 -71 -7z m537 -110 c30 -11 75 -36 100
-55 54 -43 150 -135 150 -143 0 -4 -16 -14 -35 -23 -27 -13 -64 -17 -157 -17
-66 0 -137 4 -157 10 -45 12 -179 36 -250 45 -69 9 -95 34 -88 81 6 36 37 82
72 105 47 32 273 31 365 -3z"/>
<path d="M7252 3784 c44 -62 108 -112 198 -157 38 -18 62 -22 160 -22 83 0
131 5 174 18 58 18 58 19 34 31 -15 8 -76 15 -149 18 -141 5 -180 18 -372 121
-37 21 -70 37 -73 37 -3 0 10 -21 28 -46z"/>
<path d="M2230 1699 c-51 -59 -53 -63 -56 -127 -4 -80 -64 -324 -81 -329 -7
-3 -18 16 -26 44 -8 26 -27 77 -41 113 -21 50 -24 70 -17 90 33 89 15 127 -64
136 -42 5 -56 2 -84 -18 -49 -32 -72 -78 -78 -151 -3 -34 -11 -73 -18 -87 -7
-14 -20 -75 -29 -135 -37 -258 -47 -321 -52 -345 -4 -17 1 -33 15 -49 11 -13
23 -32 26 -42 9 -26 20 -24 64 12 32 25 40 39 45 77 11 85 65 232 84 232 10 0
49 -71 72 -133 11 -30 34 -73 50 -96 27 -37 34 -41 73 -41 32 0 49 6 64 23 48
51 123 209 138 290 4 20 11 37 16 37 11 0 12 -20 9 -125 -2 -103 11 -152 59
-213 42 -53 125 -102 172 -102 34 0 146 59 220 116 115 88 214 230 254 361 29
94 9 229 -48 325 -55 94 -204 201 -247 178 -10 -6 -32 -10 -49 -10 -16 0 -33
-5 -37 -11 -4 -8 -26 -10 -61 -6 l-54 6 -28 -59 c-16 -32 -46 -79 -66 -105
-23 -28 -54 -88 -81 -158 l-43 -112 -1 162 c0 153 -17 283 -39 306 -4 4 -31
-20 -61 -54z m543 -249 c19 -16 44 -53 57 -81 19 -46 20 -57 10 -94 -18 -64
-89 -178 -149 -240 -29 -30 -57 -55 -62 -55 -22 0 -41 80 -45 197 l-5 122 46
63 c25 35 54 75 63 90 22 36 43 35 85 -2z"/>
<path d="M5086 1694 c-50 -58 -57 -71 -52 -97 4 -17 -6 -83 -24 -161 -43 -186
-50 -210 -60 -200 -4 5 -26 57 -48 115 l-40 106 15 57 c19 75 5 102 -62 112
-99 14 -175 -64 -175 -180 0 -25 -6 -60 -14 -78 -15 -35 -48 -199 -52 -258 -3
-50 -22 -191 -30 -217 -4 -15 4 -37 26 -72 l33 -50 34 29 c18 17 37 30 42 30
5 0 11 27 15 60 11 98 66 237 88 224 6 -4 32 -52 58 -108 66 -140 81 -156 136
-156 40 0 46 4 75 43 41 56 93 159 114 227 24 76 31 443 10 542 -22 109 -24
110 -89 32z"/>
<path d="M3775 1719 c-68 -52 -96 -82 -142 -154 -51 -79 -91 -125 -109 -125
-6 0 -22 15 -34 33 -12 17 -49 54 -81 82 -50 42 -58 54 -61 89 -2 31 -10 45
-40 69 -37 29 -38 30 -57 12 -11 -9 -40 -20 -63 -22 -40 -5 -45 -8 -62 -48
-16 -39 -16 -46 -2 -67 31 -49 30 -91 -14 -418 -6 -41 -15 -90 -21 -108 -9
-26 -7 -49 9 -115 12 -45 23 -95 27 -111 l6 -29 26 24 c14 13 45 65 69 115 35
76 44 109 54 190 23 202 30 257 35 262 18 18 86 -94 109 -179 17 -63 43 -119
57 -119 5 0 21 20 36 44 33 52 138 166 153 166 11 0 9 -18 -16 -173 -8 -49
-15 -110 -15 -135 -1 -138 3 -228 12 -237 15 -14 51 34 98 130 73 147 100 269
101 442 0 95 17 184 43 225 12 18 14 40 9 103 l-7 80 -40 2 c-31 2 -49 -5 -80
-28z"/>
<path d="M4260 1709 c-65 -47 -96 -99 -141 -233 -28 -85 -38 -102 -65 -118
-37 -22 -59 -73 -51 -116 4 -18 -6 -53 -29 -103 -40 -89 -54 -155 -54 -249 0
-65 1 -69 34 -94 19 -14 39 -26 43 -26 5 0 25 17 45 38 28 29 41 55 57 117 29
109 41 135 60 135 9 0 43 7 75 15 33 9 61 13 64 11 2 -3 0 -45 -7 -94 l-11
-89 34 -74 34 -74 51 105 c60 123 90 231 98 351 7 105 -7 191 -53 327 -19 57
-32 111 -29 122 4 14 -6 27 -41 54 -26 20 -50 36 -53 35 -3 0 -31 -18 -61 -40z
m29 -389 c8 -34 12 -62 10 -64 -10 -8 -88 -15 -92 -9 -5 10 52 133 62 133 4 0
13 -27 20 -60z"/>
<path d="M5738 1712 c-69 -45 -97 -89 -143 -222 -31 -90 -43 -110 -78 -141
-39 -34 -41 -39 -43 -95 -2 -42 -11 -78 -34 -126 -33 -70 -49 -153 -50 -249 0
-53 2 -58 34 -83 19 -14 39 -26 44 -26 5 0 24 15 41 32 24 24 40 61 66 144
l35 110 63 13 c94 19 102 19 100 -4 -1 -11 -7 -51 -11 -90 -8 -60 -7 -76 9
-112 11 -24 24 -54 29 -68 5 -14 13 -25 18 -25 11 0 80 142 109 225 14 40 29
118 35 182 11 101 10 121 -10 220 -11 59 -33 137 -47 172 -16 38 -24 73 -21
87 5 17 -2 29 -32 51 -20 17 -42 32 -48 36 -5 3 -35 -11 -66 -31z m24 -394
l13 -63 -40 -6 c-22 -4 -45 -4 -51 0 -12 7 40 131 55 131 5 0 15 -28 23 -62z"/>
<path d="M6258 1736 c-23 -17 -38 -59 -38 -104 0 -36 -33 -172 -63 -262 -8
-25 -20 -69 -26 -98 -6 -30 -31 -95 -55 -145 -24 -51 -49 -107 -56 -125 -15
-38 -8 -104 14 -147 9 -17 16 -40 16 -52 0 -33 14 -35 63 -7 l46 25 113 -17
c212 -31 313 -40 348 -32 19 4 56 8 81 8 36 0 50 5 67 25 12 14 22 29 22 33 0
16 -76 80 -124 105 -39 21 -52 23 -67 14 -13 -8 -37 -8 -96 2 -43 7 -113 16
-157 21 -43 4 -83 13 -88 18 -6 6 0 44 17 108 15 55 36 133 46 174 11 41 32
118 48 170 16 52 36 129 46 170 l16 75 -22 15 c-29 19 -88 40 -114 40 -11 -1
-28 -6 -37 -14z"/>
<path d="M6997 1732 c-10 -11 -25 -41 -32 -66 -13 -42 -12 -50 6 -92 17 -40
22 -45 42 -39 79 25 130 36 137 28 5 -4 0 -53 -11 -108 -23 -119 -59 -368 -59
-407 0 -36 -36 -52 -104 -45 -36 3 -55 11 -68 27 -17 21 -19 22 -44 5 -25 -16
-63 -85 -64 -116 0 -33 60 -62 235 -109 44 -12 87 -28 96 -36 24 -22 217 -4
236 22 22 31 15 48 -37 88 -90 69 -102 101 -80 217 6 29 17 101 25 159 8 58
21 137 28 175 l12 70 55 5 c70 7 114 31 130 71 12 28 11 36 -10 75 -28 53 -51
61 -200 69 -113 6 -184 12 -240 21 -27 5 -39 1 -53 -14z"/>
</g>
</svg>
